 Full Credits To Feel Free :)
 ######## ######## ######## ##          ######## ########  ######## ######## 
 ##       ##       ##       ##          ##       ##     ## ##       ##       
 ##       ##       ##       ##          ##       ##     ## ##       ##       
 ######   ######   ######   ##          ######   ########  ######   ######   
 ##       ##       ##       ##          ##       ##   ##   ##       ##       
 ##       ##       ##       ##          ##       ##    ##  ##       ##       
 ##       ######## ######## ########    ##       ##     ## ######## ######## 


 Genre:Drama | Fantasy | Romance
 Language:English  http://www.imdb.com/title/tt1152398/
 Source:1080p.DTS.x264-CHD Thanks!
 Subtitles:Romana

 Format : MPEG-4
 Format profile : Base Media
 Codec ID : isom
 File size : 2.05 GiB
 Duration : 1h 26mn
 Overall bit rate : 3 414 Kbps

 Video
 ID : 1
 Format : AVC
 Format/Info : Advanced Video Codec
 Format profile : High@L4.1
 Format settings, CABAC : Yes
 Format settings, ReFrames : 3 frames
 Codec ID : avc1
 Codec ID/Info : Advanced Video Coding
 Duration : 1h 26mn
 Bit rate mode : Variable
 Bit rate : 3 000 Kbps
 Maximum bit rate : 17.7 Mbps
 Width : 1 280 pixels
 Height : 544 pixels
 Display aspect ratio : 2.35:1
 Frame rate mode : Constant
 Frame rate : 23.976 fps
 Color space : YUV
 Chroma subsampling : 4:2:0
 Bit depth : 8 bits
 Scan type : Progressive
 Bits/(Pixel*Frame) : 0.180
 Stream size : 1.78 GiB (87%)
 Writing library : x264

 Audio
 ID : 2
 Format : AAC
 Format/Info : Advanced Audio Codec
 Format version : Version 4
 Format profile : LC
 Format settings, SBR : No
 Codec ID : 40
 Duration : 1h 26mn
 Bit rate mode : Variable
 Bit rate : 446 Kbps
 Maximum bit rate : 540 Kbps
 Channel(s) : 6 channels
 Channel positions : Front: L C R, Side: L R, LFE
 Sampling rate : 48.0 KHz
 Stream size : 275 MiB (13%)


 Plot:
 A modern-day take on the "Beauty and the Beast" tale where a New York teen 
 is transformed into a hideous monster






 ==================================  http://thepiratebay.org/user/hiest
 ==================================






 Screen Shots:
  http://leetleech.org/images/02288475205519922526.png
  http://leetleech.org/images/84398050251253043389.png
  http://leetleech.org/images/46145977055792476216.png
  http://leetleech.org/images/17826091859933699681.png


 Full Credits To Feel Free :)
 ######## ######## ######## ##          ######## ########  ######## ######## 
 ##       ##       ##       ##          ##       ##     ## ##       ##       
 ##       ##       ##       ##          ##       ##     ## ##       ##       
 ######   ######   ######   ##          ######   ########  ######   ######   
 ##       ##       ##       ##          ##       ##   ##   ##       ##       
 ##       ##       ##       ##          ##       ##    ##  ##       ##       
 ##       ######## ######## ########    ##       ##     ## ######## ######## 